<?xml version="1.0" encoding="UTF-8"?>
<svg id="Layer_1" data-name="Layer 1" xmlns="http://www.w3.org/2000/svg" viewBox="0 0 176.25 214.85">
  <defs>
    <style>
      .cls-1 {
        fill: #24b14b;
      }

      .cls-1, .cls-2 {
        fill-rule: evenodd;
      }

      .cls-2 {
        fill: #0672a5;
      }
    </style>
  </defs>
  <path class="cls-2" d="m90.68,47.42h35.37c12.14,0,22.08,9.94,22.08,22.08v75.85c0,12.14-9.94,22.08-22.08,22.08h-21.18l27.7,27.7c24.56-3.22,43.68-24.37,43.68-49.78v-75.85c0-27.61-22.6-50.2-50.2-50.2h-34.55L43.26,0l47.42,47.42h0Zm23,36.39c7.72,0,13.98,6.26,13.98,13.98s-6.26,13.98-13.98,13.98-13.98-6.26-13.98-13.98,6.26-13.98,13.98-13.98Z"/>
  <path class="cls-1" d="m135.55,214.85l-48.24-19.3h-37.11c-27.61,0-50.2-22.59-50.2-50.2v-75.85C0,43.31,20.33,21.63,45.99,19.47l27.95,27.95h-23.73c-12.14,0-22.08,9.94-22.08,22.08v75.85c0,12.14,9.94,22.08,22.08,22.08h37.92c15.81,15.81,31.61,31.61,47.42,47.42h0ZM62.58,83.8c-7.72,0-13.98,6.26-13.98,13.98s6.26,13.98,13.98,13.98,13.98-6.26,13.98-13.98-6.26-13.98-13.98-13.98Z"/>
</svg>